{
  "accessors": [
    {
      "bufferView": 2,
      "componentType": 5126,
      "count": 14552,
      "max": [
        0.4520171880722046,
        0.1817127764225006,
        0.1747213751077652
      ],
      "min": [
        -0.4524728059768677,
        -0.17769457399845123,
        -0.20083363354206085
      ],
      "type": "VEC3"
    },
    {
      "bufferView": 2,
      "byteOffset": 174624,
      "componentType": 5126,
      "count": 14552,
      "max": [
        0.9998759031295776,
        0.999909520149231,
        0.9999996423721313
      ],
      "min": [
        -0.9981194734573364,
        -0.999991238117218,
        -0.9999805688858032
      ],
      "type": "VEC3"
    },
    {
      "bufferView": 1,
      "componentType": 5126,
      "count": 14552,
      "max": [
        0.9995145797729492,
        -0.0
      ],
      "min": [
        0.0,
        -0.999597430229187
      ],
      "type": "VEC2"
    },
    {
      "bufferView": 0,
      "componentType": 5125,
      "count": 73914,
      "type": "SCALAR"
    }
  ],
  "asset": {
    "extras": {
      "author": "walteraraujo (https://sketchfab.com/walteraraujo)",
      "license": "CC-BY-4.0 (http://creativecommons.org/licenses/by/4.0/)",
      "source": "https://sketchfab.com/3d-models/fusca-71-azul-voslkswagen-beatle-71-blue-dbd85663114a424689bc215d6bc8ad29",
      "title": "Fusca 71 Azul - Voslkswagen Beatle 71 Blue"
    },
    "generator": "Sketchfab-15.36.0",
    "version": "2.0"
  },
  "bufferViews": [
    {
      "buffer": 0,
      "byteLength": 295656,
      "name": "floatBufferViews",
      "target": 34963
    },
    {
      "buffer": 0,
      "byteLength": 116416,
      "byteOffset": 295656,
      "byteStride": 8,
      "name": "floatBufferViews",
      "target": 34962
    },
    {
      "buffer": 0,
      "byteLength": 349248,
      "byteOffset": 412072,
      "byteStride": 12,
      "name": "floatBufferViews",
      "target": 34962
    }
  ],
  "buffers": [
    {
      "byteLength": 761320,
      "uri": "scene.bin"
    }
  ],
  "images": [
    {
      "uri": "textures/pxrUsdPreviewSurface1SG_baseColor.png"
    }
  ],
  "materials": [
    {
      "name": "pxrUsdPreviewSurface1SG",
      "pbrMetallicRoughness": {
        "baseColorTexture": {
          "index": 0
        }
      }
    }
  ],
  "meshes": [
    {
      "name": "Mesh",
      "primitives": [
        {
          "attributes": {
            "NORMAL": 1,
            "POSITION": 0,
            "TEXCOORD_0": 2
          },
          "indices": 3,
          "material": 0,
          "mode": 4
        }
      ]
    }
  ],
  "nodes": [
    {
      "children": [
        1
      ],
      "matrix": [
        1.0,
        0.0,
        0.0,
        0.0,
        0.0,
        2.220446049250313e-16,
        -1.0,
        0.0,
        0.0,
        1.0,
        2.220446049250313e-16,
        0.0,
        0.0,
        0.0,
        0.0,
        1.0
      ],
      "name": "Sketchfab_model"
    },
    {
      "children": [
        2
      ],
      "matrix": [
        1.0,
        0.0,
        0.0,
        0.0,
        0.0,
        2.220446049250313e-16,
        1.0,
        0.0,
        0.0,
        -1.0,
        2.220446049250313e-16,
        0.0,
        0.0,
        0.0,
        0.0,
        1.0
      ],
      "name": "USDRoot"
    },
    {
      "children": [
        3
      ],
      "name": "world"
    },
    {
      "children": [
        4
      ],
      "name": "mesh_obj"
    },
    {
      "mesh": 0,
      "name": "Mesh"
    }
  ],
  "samplers": [
    {
      "magFilter": 9729,
      "minFilter": 9987,
      "wrapS": 10497,
      "wrapT": 10497
    }
  ],
  "scene": 0,
  "scenes": [
    {
      "name": "Sketchfab_Scene",
      "nodes": [
        0
      ]
    }
  ],
  "textures": [
    {
      "sampler": 0,
      "source": 0
    }
  ]
}
