{
  "accessors": [
    {
      "bufferView": 2,
      "componentType": 5126,
      "count": 3873,
      "max": [
        123.35387420654297,
        175.0016632080078,
        123.35591125488281
      ],
      "min": [
        -123.37071990966797,
        137.90646362304688,
        -123.35224914550781
      ],
      "type": "VEC3"
    },
    {
      "bufferView": 2,
      "byteOffset": 46476,
      "componentType": 5126,
      "count": 3873,
      "max": [
        1.0,
        1.0,
        1.0
      ],
      "min": [
        -0.9999992251396179,
        -1.0,
        -1.0
      ],
      "type": "VEC3"
    },
    {
      "bufferView": 3,
      "componentType": 5126,
      "count": 3873,
      "max": [
        0.9999998211860657,
        1.0,
        0.9985077977180481,
        1.0
      ],
      "min": [
        -1.0,
        -0.9999961853027344,
        -0.9986103773117065,
        1.0
      ],
      "type": "VEC4"
    },
    {
      "bufferView": 1,
      "componentType": 5126,
      "count": 3873,
      "max": [
        0.9980400204658508,
        0.7924500107765198
      ],
      "min": [
        0.5157899856567383,
        0.31025001406669617
      ],
      "type": "VEC2"
    },
    {
      "bufferView": 0,
      "componentType": 5125,
      "count": 22800,
      "type": "SCALAR"
    },
    {
      "bufferView": 2,
      "byteOffset": 92952,
      "componentType": 5126,
      "count": 15037,
      "max": [
        121.90586853027344,
        143.77520751953125,
        121.90586853027344
      ],
      "min": [
        -121.90583038330078,
        -0.00013699999544769526,
        -121.90583801269531
      ],
      "type": "VEC3"
    },
    {
      "bufferView": 2,
      "byteOffset": 273396,
      "componentType": 5126,
      "count": 15037,
      "max": [
        1.0,
        1.0,
        1.0
      ],
      "min": [
        -1.0,
        -1.0,
        -1.0
      ],
      "type": "VEC3"
    },
    {
      "bufferView": 3,
      "byteOffset": 61968,
      "componentType": 5126,
      "count": 15037,
      "max": [
        0.9999964237213135,
        1.0,
        0.999998152256012,
        1.0
      ],
      "min": [
        -1.0,
        -1.0,
        -0.9999991059303284,
        -1.0
      ],
      "type": "VEC4"
    },
    {
      "bufferView": 1,
      "byteOffset": 30984,
      "componentType": 5126,
      "count": 15037,
      "max": [
        0.5546000003814697,
        0.6725599765777588
      ],
      "min": [
        0.0019499999471008778,
        0.0019499999471008778
      ],
      "type": "VEC2"
    },
    {
      "bufferView": 0,
      "byteOffset": 91200,
      "componentType": 5125,
      "count": 90000,
      "type": "SCALAR"
    }
  ],
  "asset": {
    "extras": {
      "author": "Marcos Silva (https://sketchfab.com/marcosramone25)",
      "license": "CC-BY-4.0 (http://creativecommons.org/licenses/by/4.0/)",
      "source": "https://sketchfab.com/3d-models/caixa-dagua-water-tank-5de7a7b4a8644e2abf5565bde2c54ccf",
      "title": "Caixa D'água (Water Tank)"
    },
    "generator": "Sketchfab-16.33.0",
    "version": "2.0"
  },
  "bufferViews": [
    {
      "buffer": 0,
      "byteLength": 451200,
      "name": "floatBufferViews",
      "target": 34963
    },
    {
      "buffer": 0,
      "byteLength": 151280,
      "byteOffset": 451200,
      "byteStride": 8,
      "name": "floatBufferViews",
      "target": 34962
    },
    {
      "buffer": 0,
      "byteLength": 453840,
      "byteOffset": 602480,
      "byteStride": 12,
      "name": "floatBufferViews",
      "target": 34962
    },
    {
      "buffer": 0,
      "byteLength": 302560,
      "byteOffset": 1056320,
      "byteStride": 16,
      "name": "floatBufferViews",
      "target": 34962
    }
  ],
  "buffers": [
    {
      "byteLength": 1358880,
      "uri": "scene.bin"
    }
  ],
  "images": [
    {
      "uri": "textures/defaultMat_1001_baseColor.jpeg"
    },
    {
      "uri": "textures/defaultMat_1001_metallicRoughness.png"
    },
    {
      "uri": "textures/defaultMat_1001_normal.png"
    }
  ],
  "materials": [
    {
      "doubleSided": true,
      "name": "defaultMat_1001",
      "normalTexture": {
        "index": 2
      },
      "occlusionTexture": {
        "index": 1
      },
      "pbrMetallicRoughness": {
        "baseColorTexture": {
          "index": 0
        },
        "metallicRoughnessTexture": {
          "index": 1
        }
      }
    }
  ],
  "meshes": [
    {
      "name": "defaultMaterial",
      "primitives": [
        {
          "attributes": {
            "NORMAL": 1,
            "POSITION": 0,
            "TANGENT": 2,
            "TEXCOORD_0": 3
          },
          "indices": 4,
          "material": 0,
          "mode": 4
        }
      ]
    },
    {
      "name": "defaultMaterial",
      "primitives": [
        {
          "attributes": {
            "NORMAL": 6,
            "POSITION": 5,
            "TANGENT": 7,
            "TEXCOORD_0": 8
          },
          "indices": 9,
          "material": 0,
          "mode": 4
        }
      ]
    }
  ],
  "nodes": [
    {
      "children": [
        1
      ],
      "matrix": [
        1.0,
        0.0,
        0.0,
        0.0,
        0.0,
        2.220446049250313e-16,
        -1.0,
        0.0,
        0.0,
        1.0,
        2.220446049250313e-16,
        0.0,
        0.0,
        0.0,
        0.0,
        1.0
      ],
      "name": "Sketchfab_model"
    },
    {
      "children": [
        2,
        4
      ],
      "matrix": [
        1.0,
        0.0,
        0.0,
        0.0,
        0.0,
        -4.371139006309477e-08,
        0.999999999999999,
        0.0,
        0.0,
        -0.999999999999999,
        -4.371139006309477e-08,
        0.0,
        0.0,
        0.0,
        0.0,
        1.0
      ],
      "name": "Collada visual scene group"
    },
    {
      "children": [
        3
      ],
      "name": "Group3"
    },
    {
      "mesh": 0,
      "name": "defaultMaterial"
    },
    {
      "children": [
        5
      ],
      "name": "Group2"
    },
    {
      "mesh": 1,
      "name": "defaultMaterial"
    }
  ],
  "samplers": [
    {
      "magFilter": 9729,
      "minFilter": 9987,
      "wrapS": 10497,
      "wrapT": 10497
    }
  ],
  "scene": 0,
  "scenes": [
    {
      "name": "Sketchfab_Scene",
      "nodes": [
        0
      ]
    }
  ],
  "textures": [
    {
      "sampler": 0,
      "source": 0
    },
    {
      "sampler": 0,
      "source": 1
    },
    {
      "sampler": 0,
      "source": 2
    }
  ]
}
