{
  "accessors": [
    {
      "bufferView": 2,
      "componentType": 5126,
      "count": 338,
      "max": [
        0.9903924465179443,
        1.3916749954223633,
        0.9900124073028564
      ],
      "min": [
        -0.9903919696807861,
        -0.8686284422874451,
        -0.27252304553985596
      ],
      "type": "VEC3"
    },
    {
      "bufferView": 2,
      "byteOffset": 4056,
      "componentType": 5126,
      "count": 338,
      "max": [
        0.9835450053215027,
        0.9995734691619873,
        0.9968767166137695
      ],
      "min": [
        -0.9835448861122131,
        -0.9992562532424927,
        -0.32062098383903503
      ],
      "type": "VEC3"
    },
    {
      "bufferView": 1,
      "componentType": 5126,
      "count": 338,
      "max": [
        0.5,
        1.0
      ],
      "min": [
        0.0,
        0.0
      ],
      "type": "VEC2"
    },
    {
      "bufferView": 0,
      "componentType": 5125,
      "count": 1632,
      "type": "SCALAR"
    },
    {
      "bufferView": 2,
      "byteOffset": 8112,
      "componentType": 5126,
      "count": 1513,
      "max": [
        0.5133010149002075,
        0.9111599922180176,
        1.6162283420562744
      ],
      "min": [
        -0.5563716888427734,
        -0.5646840333938599,
        -1.000000238418579
      ],
      "type": "VEC3"
    },
    {
      "bufferView": 2,
      "byteOffset": 26268,
      "componentType": 5126,
      "count": 1513,
      "max": [
        0.9999875426292419,
        0.9999921321868896,
        1.0
      ],
      "min": [
        -0.999995768070221,
        -0.9999817609786987,
        -1.0
      ],
      "type": "VEC3"
    },
    {
      "bufferView": 1,
      "byteOffset": 2704,
      "componentType": 5126,
      "count": 1513,
      "max": [
        0.875,
        1.0
      ],
      "min": [
        0.125,
        0.0
      ],
      "type": "VEC2"
    },
    {
      "bufferView": 0,
      "byteOffset": 6528,
      "componentType": 5125,
      "count": 2298,
      "type": "SCALAR"
    },
    {
      "bufferView": 2,
      "byteOffset": 44424,
      "componentType": 5126,
      "count": 92,
      "max": [
        0.4441481828689575,
        0.7703529596328735,
        1.6162283420562744
      ],
      "min": [
        -0.15216787159442902,
        -0.1545262187719345,
        1.0000004768371582
      ],
      "type": "VEC3"
    },
    {
      "bufferView": 2,
      "byteOffset": 45528,
      "componentType": 5126,
      "count": 92,
      "max": [
        3.0954115715076114e-08,
        5.398120720201405e-06,
        1.0
      ],
      "min": [
        -3.391560365884061e-09,
        -1.358552594865614e-06,
        -1.0
      ],
      "type": "VEC3"
    },
    {
      "bufferView": 1,
      "byteOffset": 14808,
      "componentType": 5126,
      "count": 92,
      "max": [
        0.60136878490448,
        0.23400622606277466
      ],
      "min": [
        0.4443664848804474,
        0.09398132562637329
      ],
      "type": "VEC2"
    },
    {
      "bufferView": 0,
      "byteOffset": 15720,
      "componentType": 5125,
      "count": 168,
      "type": "SCALAR"
    },
    {
      "bufferView": 2,
      "byteOffset": 46632,
      "componentType": 5126,
      "count": 1303,
      "max": [
        0.7788364291191101,
        0.8921234011650085,
        4.257944107055664
      ],
      "min": [
        -0.777877926826477,
        -4.740975856781006,
        -1.1104319095611572
      ],
      "type": "VEC3"
    },
    {
      "bufferView": 2,
      "byteOffset": 62268,
      "componentType": 5126,
      "count": 1303,
      "max": [
        1.0,
        1.0,
        0.9995643496513367
      ],
      "min": [
        -1.0,
        -1.0,
        -1.0
      ],
      "type": "VEC3"
    },
    {
      "bufferView": 1,
      "byteOffset": 15544,
      "componentType": 5126,
      "count": 1303,
      "max": [
        1.0,
        1.0
      ],
      "min": [
        0.0,
        0.0
      ],
      "type": "VEC2"
    },
    {
      "bufferView": 0,
      "byteOffset": 16392,
      "componentType": 5125,
      "count": 6552,
      "type": "SCALAR"
    },
    {
      "bufferView": 2,
      "byteOffset": 77904,
      "componentType": 5126,
      "count": 922,
      "max": [
        74.6126480102539,
        0.9999504089355469,
        1.2486457824707031
      ],
      "min": [
        -7.3421478271484375,
        -65.91931915283203,
        -30.834562301635742
      ],
      "type": "VEC3"
    },
    {
      "bufferView": 2,
      "byteOffset": 88968,
      "componentType": 5126,
      "count": 922,
      "max": [
        0.9980387091636658,
        0.9995894432067871,
        0.999113917350769
      ],
      "min": [
        -0.9973973631858826,
        -0.9904817938804626,
        -0.9984432458877563
      ],
      "type": "VEC3"
    },
    {
      "bufferView": 1,
      "byteOffset": 25968,
      "componentType": 5126,
      "count": 922,
      "max": [
        1.0,
        0.9900000095367432
      ],
      "min": [
        0.0,
        0.0
      ],
      "type": "VEC2"
    },
    {
      "bufferView": 0,
      "byteOffset": 42600,
      "componentType": 5125,
      "count": 4212,
      "type": "SCALAR"
    },
    {
      "bufferView": 2,
      "byteOffset": 100032,
      "componentType": 5126,
      "count": 163,
      "max": [
        1.0,
        1.0,
        1.0
      ],
      "min": [
        -1.0,
        -1.0,
        -1.0
      ],
      "type": "VEC3"
    },
    {
      "bufferView": 2,
      "byteOffset": 101988,
      "componentType": 5126,
      "count": 163,
      "max": [
        1.0,
        0.6856964826583862,
        1.0
      ],
      "min": [
        -1.0,
        -0.685696542263031,
        -1.0
      ],
      "type": "VEC3"
    },
    {
      "bufferView": 1,
      "byteOffset": 33344,
      "componentType": 5126,
      "count": 163,
      "max": [
        1.0,
        0.9900000095367432
      ],
      "min": [
        0.0,
        0.0
      ],
      "type": "VEC2"
    },
    {
      "bufferView": 0,
      "byteOffset": 59448,
      "componentType": 5125,
      "count": 564,
      "type": "SCALAR"
    },
    {
      "bufferView": 2,
      "byteOffset": 103944,
      "componentType": 5126,
      "count": 24,
      "max": [
        1.0,
        1.0,
        1.0
      ],
      "min": [
        -1.0,
        -1.0,
        -1.0
      ],
      "type": "VEC3"
    },
    {
      "bufferView": 2,
      "byteOffset": 104232,
      "componentType": 5126,
      "count": 24,
      "max": [
        1.0,
        1.0,
        1.0
      ],
      "min": [
        -1.0,
        -1.0,
        -1.0
      ],
      "type": "VEC3"
    },
    {
      "bufferView": 1,
      "byteOffset": 34648,
      "componentType": 5126,
      "count": 24,
      "max": [
        0.875,
        1.0
      ],
      "min": [
        0.125,
        0.0
      ],
      "type": "VEC2"
    },
    {
      "bufferView": 0,
      "byteOffset": 61704,
      "componentType": 5125,
      "count": 36,
      "type": "SCALAR"
    },
    {
      "bufferView": 2,
      "byteOffset": 104520,
      "componentType": 5126,
      "count": 338,
      "max": [
        0.9903924465179443,
        1.3916749954223633,
        0.9900124073028564
      ],
      "min": [
        -0.9903919696807861,
        -0.8686284422874451,
        -0.27252304553985596
      ],
      "type": "VEC3"
    },
    {
      "bufferView": 2,
      "byteOffset": 108576,
      "componentType": 5126,
      "count": 338,
      "max": [
        0.9835450053215027,
        0.9995734691619873,
        0.9968767166137695
      ],
      "min": [
        -0.9835448861122131,
        -0.9992562532424927,
        -0.32062098383903503
      ],
      "type": "VEC3"
    },
    {
      "bufferView": 1,
      "byteOffset": 34840,
      "componentType": 5126,
      "count": 338,
      "max": [
        0.5,
        1.0
      ],
      "min": [
        0.0,
        0.0
      ],
      "type": "VEC2"
    },
    {
      "bufferView": 0,
      "byteOffset": 61848,
      "componentType": 5125,
      "count": 1632,
      "type": "SCALAR"
    },
    {
      "bufferView": 2,
      "byteOffset": 112632,
      "componentType": 5126,
      "count": 1513,
      "max": [
        0.5133010149002075,
        0.9111599922180176,
        1.6162283420562744
      ],
      "min": [
        -0.5563716888427734,
        -0.5646840333938599,
        -1.000000238418579
      ],
      "type": "VEC3"
    },
    {
      "bufferView": 2,
      "byteOffset": 130788,
      "componentType": 5126,
      "count": 1513,
      "max": [
        0.9999875426292419,
        0.9999921321868896,
        1.0
      ],
      "min": [
        -0.999995768070221,
        -0.9999817609786987,
        -1.0
      ],
      "type": "VEC3"
    },
    {
      "bufferView": 1,
      "byteOffset": 37544,
      "componentType": 5126,
      "count": 1513,
      "max": [
        0.875,
        1.0
      ],
      "min": [
        0.125,
        0.0
      ],
      "type": "VEC2"
    },
    {
      "bufferView": 0,
      "byteOffset": 68376,
      "componentType": 5125,
      "count": 2298,
      "type": "SCALAR"
    },
    {
      "bufferView": 2,
      "byteOffset": 148944,
      "componentType": 5126,
      "count": 92,
      "max": [
        0.4441481828689575,
        0.7703529596328735,
        1.6162283420562744
      ],
      "min": [
        -0.15216787159442902,
        -0.1545262187719345,
        1.0000004768371582
      ],
      "type": "VEC3"
    },
    {
      "bufferView": 2,
      "byteOffset": 150048,
      "componentType": 5126,
      "count": 92,
      "max": [
        3.0954115715076114e-08,
        5.398120720201405e-06,
        1.0
      ],
      "min": [
        -3.391560365884061e-09,
        -1.358552594865614e-06,
        -1.0
      ],
      "type": "VEC3"
    },
    {
      "bufferView": 1,
      "byteOffset": 49648,
      "componentType": 5126,
      "count": 92,
      "max": [
        0.60136878490448,
        0.23400622606277466
      ],
      "min": [
        0.4443664848804474,
        0.09398132562637329
      ],
      "type": "VEC2"
    },
    {
      "bufferView": 0,
      "byteOffset": 77568,
      "componentType": 5125,
      "count": 168,
      "type": "SCALAR"
    },
    {
      "bufferView": 2,
      "byteOffset": 151152,
      "componentType": 5126,
      "count": 1303,
      "max": [
        0.7788364291191101,
        0.8921234011650085,
        4.257944107055664
      ],
      "min": [
        -0.777877926826477,
        -4.740975856781006,
        -1.1104319095611572
      ],
      "type": "VEC3"
    },
    {
      "bufferView": 2,
      "byteOffset": 166788,
      "componentType": 5126,
      "count": 1303,
      "max": [
        1.0,
        1.0,
        0.9995643496513367
      ],
      "min": [
        -1.0,
        -1.0,
        -1.0
      ],
      "type": "VEC3"
    },
    {
      "bufferView": 1,
      "byteOffset": 50384,
      "componentType": 5126,
      "count": 1303,
      "max": [
        1.0,
        1.0
      ],
      "min": [
        0.0,
        0.0
      ],
      "type": "VEC2"
    },
    {
      "bufferView": 0,
      "byteOffset": 78240,
      "componentType": 5125,
      "count": 6552,
      "type": "SCALAR"
    },
    {
      "bufferView": 2,
      "byteOffset": 182424,
      "componentType": 5126,
      "count": 922,
      "max": [
        74.6126480102539,
        0.9999504089355469,
        1.2486457824707031
      ],
      "min": [
        -7.3421478271484375,
        -65.91931915283203,
        -30.834562301635742
      ],
      "type": "VEC3"
    },
    {
      "bufferView": 2,
      "byteOffset": 193488,
      "componentType": 5126,
      "count": 922,
      "max": [
        0.9980387091636658,
        0.9995894432067871,
        0.999113917350769
      ],
      "min": [
        -0.9973973631858826,
        -0.9904817938804626,
        -0.9984432458877563
      ],
      "type": "VEC3"
    },
    {
      "bufferView": 1,
      "byteOffset": 60808,
      "componentType": 5126,
      "count": 922,
      "max": [
        1.0,
        0.9900000095367432
      ],
      "min": [
        0.0,
        0.0
      ],
      "type": "VEC2"
    },
    {
      "bufferView": 0,
      "byteOffset": 104448,
      "componentType": 5125,
      "count": 4212,
      "type": "SCALAR"
    },
    {
      "bufferView": 2,
      "byteOffset": 204552,
      "componentType": 5126,
      "count": 24,
      "max": [
        1.0,
        1.0,
        1.0
      ],
      "min": [
        -1.0,
        -1.0,
        -1.0
      ],
      "type": "VEC3"
    },
    {
      "bufferView": 2,
      "byteOffset": 204840,
      "componentType": 5126,
      "count": 24,
      "max": [
        1.0,
        1.0,
        1.0
      ],
      "min": [
        -1.0,
        -1.0,
        -1.0
      ],
      "type": "VEC3"
    },
    {
      "bufferView": 1,
      "byteOffset": 68184,
      "componentType": 5126,
      "count": 24,
      "max": [
        0.875,
        1.0
      ],
      "min": [
        0.125,
        0.0
      ],
      "type": "VEC2"
    },
    {
      "bufferView": 0,
      "byteOffset": 121296,
      "componentType": 5125,
      "count": 36,
      "type": "SCALAR"
    }
  ],
  "asset": {
    "extras": {
      "author": "herdyanasofia (https://sketchfab.com/herdyanasofia)",
      "license": "CC-BY-4.0 (http://creativecommons.org/licenses/by/4.0/)",
      "source": "https://sketchfab.com/3d-models/orelhao-78a74f8c4fd940dfb8cf825c5f57d05d",
      "title": "Orelhao"
    },
    "generator": "Sketchfab-15.55.0",
    "version": "2.0"
  },
  "bufferViews": [
    {
      "buffer": 0,
      "byteLength": 121440,
      "name": "floatBufferViews",
      "target": 34963
    },
    {
      "buffer": 0,
      "byteLength": 68376,
      "byteOffset": 121440,
      "byteStride": 8,
      "name": "floatBufferViews",
      "target": 34962
    },
    {
      "buffer": 0,
      "byteLength": 205128,
      "byteOffset": 189816,
      "byteStride": 12,
      "name": "floatBufferViews",
      "target": 34962
    }
  ],
  "buffers": [
    {
      "byteLength": 394944,
      "uri": "scene.bin"
    }
  ],
  "materials": [
    {
      "doubleSided": true,
      "name": "Material",
      "pbrMetallicRoughness": {
        "baseColorFactor": [
          0.0238048,
          0.583737,
          0.698194,
          1.0
        ],
        "metallicFactor": 0.0,
        "roughnessFactor": 0.5
      }
    },
    {
      "doubleSided": true,
      "name": "Material.003",
      "pbrMetallicRoughness": {
        "baseColorFactor": [
          0.069978,
          0.069978,
          0.069978,
          1.0
        ],
        "metallicFactor": 0.0,
        "roughnessFactor": 0.5
      }
    },
    {
      "doubleSided": true,
      "name": "Material.005",
      "pbrMetallicRoughness": {
        "baseColorFactor": [
          0.318539,
          0.318539,
          0.318539,
          1.0
        ],
        "metallicFactor": 0.0,
        "roughnessFactor": 0.5
      }
    },
    {
      "doubleSided": true,
      "name": "Material.004",
      "pbrMetallicRoughness": {
        "baseColorFactor": [
          0.0,
          0.0,
          0.0,
          1.0
        ],
        "metallicFactor": 0.0,
        "roughnessFactor": 0.5
      }
    },
    {
      "doubleSided": true,
      "name": "Material.006",
      "pbrMetallicRoughness": {
        "baseColorFactor": [
          0.334323,
          0.334323,
          0.334323,
          1.0
        ],
        "metallicFactor": 0.748031,
        "roughnessFactor": 0.5
      }
    },
    {
      "doubleSided": true,
      "name": "Material.002",
      "pbrMetallicRoughness": {
        "baseColorFactor": [
          0.153101,
          0.158027,
          0.173354,
          1.0
        ],
        "metallicFactor": 0.614173,
        "roughnessFactor": 0.5
      }
    }
  ],
  "meshes": [
    {
      "name": "Object_0",
      "primitives": [
        {
          "attributes": {
            "NORMAL": 1,
            "POSITION": 0,
            "TEXCOORD_0": 2
          },
          "indices": 3,
          "material": 0,
          "mode": 4
        }
      ]
    },
    {
      "name": "Object_1",
      "primitives": [
        {
          "attributes": {
            "NORMAL": 5,
            "POSITION": 4,
            "TEXCOORD_0": 6
          },
          "indices": 7,
          "material": 1,
          "mode": 4
        }
      ]
    },
    {
      "name": "Object_2",
      "primitives": [
        {
          "attributes": {
            "NORMAL": 9,
            "POSITION": 8,
            "TEXCOORD_0": 10
          },
          "indices": 11,
          "material": 2,
          "mode": 4
        }
      ]
    },
    {
      "name": "Object_3",
      "primitives": [
        {
          "attributes": {
            "NORMAL": 13,
            "POSITION": 12,
            "TEXCOORD_0": 14
          },
          "indices": 15,
          "material": 3,
          "mode": 4
        }
      ]
    },
    {
      "name": "Object_4",
      "primitives": [
        {
          "attributes": {
            "NORMAL": 17,
            "POSITION": 16,
            "TEXCOORD_0": 18
          },
          "indices": 19,
          "material": 4,
          "mode": 4
        }
      ]
    },
    {
      "name": "Object_5",
      "primitives": [
        {
          "attributes": {
            "NORMAL": 21,
            "POSITION": 20,
            "TEXCOORD_0": 22
          },
          "indices": 23,
          "material": 5,
          "mode": 4
        }
      ]
    },
    {
      "name": "Object_6",
      "primitives": [
        {
          "attributes": {
            "NORMAL": 25,
            "POSITION": 24,
            "TEXCOORD_0": 26
          },
          "indices": 27,
          "material": 5,
          "mode": 4
        }
      ]
    },
    {
      "name": "Object_7",
      "primitives": [
        {
          "attributes": {
            "NORMAL": 29,
            "POSITION": 28,
            "TEXCOORD_0": 30
          },
          "indices": 31,
          "material": 0,
          "mode": 4
        }
      ]
    },
    {
      "name": "Object_8",
      "primitives": [
        {
          "attributes": {
            "NORMAL": 33,
            "POSITION": 32,
            "TEXCOORD_0": 34
          },
          "indices": 35,
          "material": 1,
          "mode": 4
        }
      ]
    },
    {
      "name": "Object_9",
      "primitives": [
        {
          "attributes": {
            "NORMAL": 37,
            "POSITION": 36,
            "TEXCOORD_0": 38
          },
          "indices": 39,
          "material": 4,
          "mode": 4
        }
      ]
    },
    {
      "name": "Object_10",
      "primitives": [
        {
          "attributes": {
            "NORMAL": 41,
            "POSITION": 40,
            "TEXCOORD_0": 42
          },
          "indices": 43,
          "material": 3,
          "mode": 4
        }
      ]
    },
    {
      "name": "Object_11",
      "primitives": [
        {
          "attributes": {
            "NORMAL": 45,
            "POSITION": 44,
            "TEXCOORD_0": 46
          },
          "indices": 47,
          "material": 2,
          "mode": 4
        }
      ]
    },
    {
      "name": "Object_12",
      "primitives": [
        {
          "attributes": {
            "NORMAL": 49,
            "POSITION": 48,
            "TEXCOORD_0": 50
          },
          "indices": 51,
          "material": 5,
          "mode": 4
        }
      ]
    }
  ],
  "nodes": [
    {
      "children": [
        1
      ],
      "matrix": [
        1.0,
        0.0,
        0.0,
        0.0,
        0.0,
        2.220446049250313e-16,
        -1.0,
        0.0,
        0.0,
        1.0,
        2.220446049250313e-16,
        0.0,
        0.0,
        0.0,
        0.0,
        1.0
      ],
      "name": "Sketchfab_model"
    },
    {
      "children": [
        2
      ],
      "name": "root"
    },
    {
      "children": [
        3,
        5,
        8,
        10,
        12,
        14,
        16,
        18,
        21,
        23,
        25
      ],
      "matrix": [
        1.0,
        0.0,
        0.0,
        0.0,
        0.0,
        2.220446049250313e-16,
        1.0,
        0.0,
        0.0,
        -1.0,
        2.220446049250313e-16,
        0.0,
        0.0,
        0.0,
        0.0,
        1.0
      ],
      "name": "GLTF_SceneRootNode"
    },
    {
      "children": [
        4
      ],
      "matrix": [
        -65.90486907957947,
        -1.201100190519517e-06,
        3.695747044488466e-05,
        0.0,
        1.3411017821126398e-06,
        73.43153130278684,
        4.778026241643998,
        0.0,
        -5.2549349773210525e-05,
        6.084587420095485,
        -93.51153572766512,
        0.0,
        0.0,
        262.3228759765625,
        104.69625091552734,
        1.0
      ],
      "name": "Sphere_0"
    },
    {
      "mesh": 0,
      "name": "Object_4"
    },
    {
      "children": [
        6,
        7
      ],
      "matrix": [
        36.778358459472656,
        0.0,
        0.0,
        0.0,
        0.0,
        35.66118240356445,
        0.0,
        0.0,
        0.0,
        0.0,
        2.41230845451355,
        0.0,
        -1.2310946658544708e-05,
        283.5562744140625,
        31.86180305480957,
        1.0
      ],
      "name": "Cube_1"
    },
    {
      "mesh": 1,
      "name": "Object_6"
    },
    {
      "mesh": 2,
      "name": "Object_7"
    },
    {
      "children": [
        9
      ],
      "matrix": [
        4.943800926208496,
        0.0,
        0.0,
        0.0,
        0.0,
        5.859948635101318,
        0.0,
        0.0,
        0.0,
        0.0,
        2.707543134689331,
        0.0,
        -13.311407089233398,
        303.0950927734375,
        36.24737548828125,
        1.0
      ],
      "name": "Sphere.001_3"
    },
    {
      "mesh": 3,
      "name": "Object_9"
    },
    {
      "children": [
        11
      ],
      "matrix": [
        0.3947390913963318,
        0.0,
        0.0,
        0.0,
        -0.0,
        0.36645890538869913,
        -0.14672021311911335,
        0.0,
        0.0,
        0.14672021311911335,
        0.36645890538869913,
        0.0,
        -13.309039115905762,
        275.7110595703125,
        37.378082275390625,
        1.0
      ],
      "name": "Cylinder_4"
    },
    {
      "mesh": 4,
      "name": "Object_11"
    },
    {
      "children": [
        13
      ],
      "matrix": [
        6.9876389503479,
        0.0,
        0.0,
        0.0,
        0.0,
        157.92001342773438,
        0.0,
        0.0,
        0.0,
        0.0,
        6.338517665863037,
        0.0,
        -5.107474862597883e-06,
        155.38316345214844,
        1.6097989082336426,
        1.0
      ],
      "name": "Cylinder.001_5"
    },
    {
      "mesh": 5,
      "name": "Object_13"
    },
    {
      "children": [
        15
      ],
      "matrix": [
        13.945366859436035,
        0.0,
        0.0,
        0.0,
        0.0,
        13.945366859436035,
        0.0,
        0.0,
        0.0,
        0.0,
        8.62888240814209,
        0.0,
        -5.107474862597883e-06,
        280.82476806640625,
        14.043646812438965,
        1.0
      ],
      "name": "Cube.001_6"
    },
    {
      "mesh": 6,
      "name": "Object_15"
    },
    {
      "children": [
        17
      ],
      "matrix": [
        65.90486907958984,
        0.0,
        0.0,
        0.0,
        0.0,
        73.428912329337,
        -4.777855830873312,
        0.0,
        0.0,
        6.037357381364186,
        92.78567657744405,
        0.0,
        -1.9041557312011719,
        191.7267608642578,
        -99.01808166503906,
        1.0
      ],
      "name": "Sphere.002_7"
    },
    {
      "mesh": 7,
      "name": "Object_17"
    },
    {
      "children": [
        19,
        20
      ],
      "matrix": [
        -36.778358459470695,
        0.0,
        1.1983910702588676e-05,
        0.0,
        0.0,
        35.66118240356445,
        0.0,
        0.0,
        -7.860298914059957e-07,
        0.0,
        -2.4123084545134215,
        0.0,
        -1.9041366577148438,
        212.96017456054688,
        -26.183631896972656,
        1.0
      ],
      "name": "Cube.002_8"
    },
    {
      "mesh": 8,
      "name": "Object_19"
    },
    {
      "mesh": 9,
      "name": "Object_20"
    },
    {
      "children": [
        22
      ],
      "matrix": [
        -4.943800926208232,
        0.0,
        1.6108948662388804e-06,
        0.0,
        0.0,
        5.859948635101318,
        0.0,
        0.0,
        -8.822295640322932e-07,
        0.0,
        -2.7075431346891867,
        0.0,
        11.407258033752441,
        232.49899291992188,
        -30.56920623779297,
        1.0
      ],
      "name": "Sphere.003_9"
    },
    {
      "mesh": 10,
      "name": "Object_22"
    },
    {
      "children": [
        24
      ],
      "matrix": [
        -0.39473909139631164,
        -2.390375807377043e-08,
        1.2401490138660196e-07,
        0.0,
        2.390375807377043e-08,
        0.36645890538869985,
        0.1467202131191096,
        0.0,
        -1.2401490138660196e-07,
        0.1467202131191096,
        -0.3664589053886797,
        0.0,
        11.404889106750488,
        205.11495971679688,
        -31.699913024902344,
        1.0
      ],
      "name": "Cylinder.002_10"
    },
    {
      "mesh": 11,
      "name": "Object_24"
    },
    {
      "children": [
        26
      ],
      "matrix": [
        -13.945366859435293,
        0.0,
        4.543977441039851e-06,
        0.0,
        0.0,
        13.945366859436035,
        0.0,
        0.0,
        -2.8116468644532275e-06,
        0.0,
        -8.62888240814163,
        0.0,
        -1.9041423797607422,
        210.2286376953125,
        -8.365478515625,
        1.0
      ],
      "name": "Cube.003_11"
    },
    {
      "mesh": 12,
      "name": "Object_26"
    }
  ],
  "scene": 0,
  "scenes": [
    {
      "name": "Sketchfab_Scene",
      "nodes": [
        0
      ]
    }
  ]
}
